<?xml version="1.0" encoding="UTF-8" standalone="no"?>
<!DOCTYPE svg PUBLIC "-//W3C//DTD SVG 1.1//EN" "http://www.w3.org/Graphics/SVG/1.1/DTD/svg11.dtd">
<svg width="100%" height="100%" viewBox="0 0 2140 4533" version="1.1" xmlns="http://www.w3.org/2000/svg" xmlns:xlink="http://www.w3.org/1999/xlink" xml:space="preserve" xmlns:serif="http://www.serif.com/" style="fill-rule:evenodd;clip-rule:evenodd;stroke-linejoin:round;stroke-miterlimit:2;">
    <g id="ios_icon" transform="matrix(0.535377,0,0,0.535377,-493.638,-817.851)">
        <rect x="922.038" y="5334.28" width="1912.67" height="1912.67" style="fill:rgb(0,218,93);"/>
        <g transform="matrix(-4.24911,-3.82775,3.82775,-4.24911,13814.9,21605.5)">
            <circle cx="3348.07" cy="497.236" r="34.05" style="fill:white;"/>
        </g>
        <g transform="matrix(-4.24911,-3.82775,3.82775,-4.24911,14587.9,20832.5)">
            <circle cx="3348.07" cy="497.236" r="34.05" style="fill:white;"/>
        </g>
        <g transform="matrix(5.41348e-16,-8.84089,8.84089,5.41348e-16,-2925.55,35745)">
            <rect x="3265.87" y="568" width="41.116" height="41.116" style="fill-opacity:0.78;"/>
        </g>
        <g transform="matrix(5.41348e-16,-8.84089,8.84089,5.41348e-16,-3724.46,34946.1)">
            <rect x="3265.87" y="568" width="41.116" height="41.116" style="fill-opacity:0.78;"/>
        </g>
    </g>
    <g id="feature_graphic" transform="matrix(0.678663,0,0,0.331378,-8861.09,-3735.59)">
        <rect x="13056.7" y="11272.9" width="1508.85" height="1508.85" style="fill:rgb(0,218,93);"/>
    </g>
    <g id="Game" transform="matrix(0.798907,-7.55788e-17,-1.17359e-16,0.823067,-501.827,3390.35)">
        <rect x="1566.92" y="8.076" width="801.094" height="1380.2" style="fill:rgb(0,218,93);"/>
        <clipPath id="_clip1">
            <rect x="1566.92" y="8.076" width="801.094" height="1380.2"/>
        </clipPath>
        <g clip-path="url(#_clip1)">
            <g transform="matrix(0.761384,6.99148e-17,1.08564e-16,0.739035,-480.824,-2922.51)">
                <text x="3169.39px" y="4365.52px" style="font-family:'Schluber';font-size:251.776px;fill:white;">6</text>
            </g>
            <g transform="matrix(-1.26964e-15,-15.148,1.85531,2.80636e-16,923.925,15215.6)">
                <rect x="941.537" y="346.572" width="33.672" height="431.784" style="fill-opacity:0.08;"/>
            </g>
            <g transform="matrix(-0.685097,-0.449814,0.463416,-0.664987,3947.76,2653.99)">
                <circle cx="3348.07" cy="497.236" r="34.05" style="fill:white;"/>
            </g>
            <g transform="matrix(-0.685097,-0.449814,0.463416,-0.664987,4113.83,2415.69)">
                <circle cx="3348.07" cy="497.236" r="34.05" style="fill:white;"/>
            </g>
            <g transform="matrix(-1.04023e-16,-1.24109,1.27862,1.93405e-16,1135.67,4776.92)">
                <rect x="3265.87" y="568" width="41.116" height="41.116" style="fill-opacity:0.78;"/>
            </g>
            <g transform="matrix(-1.04023e-16,-1.24109,1.27862,1.93405e-16,1367.18,4942.91)">
                <rect x="3265.87" y="568" width="41.116" height="41.116" style="fill-opacity:0.78;"/>
            </g>
            <g transform="matrix(-1.04023e-16,-1.24109,1.27862,1.93405e-16,899.952,4610.94)">
                <rect x="3265.87" y="568" width="41.116" height="41.116" style="fill-opacity:0.78;"/>
            </g>
            <g transform="matrix(-1.04023e-16,-1.24109,1.27862,1.93405e-16,1529.91,4723.69)">
                <rect x="3265.87" y="568" width="41.116" height="41.116" style="fill:white;"/>
            </g>
        </g>
    </g>
    <g id="Game-Over" serif:id="Game Over" transform="matrix(0.798907,-7.55788e-17,-1.17359e-16,0.823067,248.173,3390.35)">
        <rect x="1566.92" y="8.076" width="801.094" height="1380.2" style="fill:rgb(0,218,93);"/>
        <g transform="matrix(1,1.2326e-32,7.39557e-32,1,-1.92989,-93.0771)">
            <g transform="matrix(0.444601,4.08259e-17,6.33947e-17,0.431551,727.123,-143.062)">
                <rect x="2240.74" y="2610.91" width="197.075" height="197.075" style="fill:white;fill-opacity:0;"/>
            </g>
            <g transform="matrix(0.971489,4.75467e-32,2.39491e-32,0.971489,50.5593,29.2775)">
                <path d="M1782.15,1061.49L1751.83,1061.49L1749.43,1061.33C1748.89,1061.25 1748.87,1061.33 1747.76,1061.08C1745.9,1060.63 1744.08,1060.03 1742.35,1059.2L1740.47,1058.15C1739.3,1057.39 1737.97,1056.78 1737.26,1055.7C1737.26,1055.7 1734.35,1052.72 1732.92,1049.99L1731.94,1047.79C1731.66,1047 1731.42,1046.19 1731.21,1045.38C1730.84,1043.9 1730.68,1042.39 1730.63,1040.88L1730.63,1011.52C1730.67,1010.16 1730.81,1008.8 1731.1,1007.46L1731.5,1005.89C1731.76,1005.1 1732.16,1004.04 1732.16,1004.04C1732.5,1003.27 1733.01,1002.25 1733.01,1002.25C1735.76,997.22 1740.56,993.356 1746.23,991.708C1747.84,991.24 1749.3,991.035 1750.8,990.949C1750.8,990.949 1751.85,990.911 1751.85,990.911C1753.89,990.911 1755.94,990.815 1757.98,990.916C1757.98,990.916 1758.93,991.103 1758.93,991.103C1759.06,991.134 1759.17,991.177 1759.28,991.231C1760.27,991.715 1760.82,992.772 1761.13,993.789C1761.13,993.789 1761.16,993.793 1761.19,994.135L1761.19,1000.64C1761.07,1002.31 1759.64,1003.71 1757.92,1003.83C1757.49,1003.84 1757.49,1003.84 1757.05,1003.83C1756.22,1003.83 1755.39,1003.81 1754.56,1003.8C1754.23,1003.8 1753.89,1003.8 1753.55,1003.81C1752.95,1003.81 1752.36,1003.83 1751.77,1003.88C1749.97,1004.01 1749.86,1004.2 1749.27,1004.39C1749.27,1004.39 1746.91,1005.5 1745.83,1006.8C1744.17,1008.78 1743.98,1011.44 1743.92,1014.18C1743.87,1016.36 1743.85,1018.54 1743.85,1020.72L1743.84,1021.62C1743.86,1025.86 1743.9,1030.1 1743.95,1034.34L1743.98,1038C1743.99,1042.51 1745.49,1047.26 1750.36,1048.34C1753.47,1049.03 1757.46,1048.66 1761.38,1048.66C1768.23,1048.67 1775.09,1048.55 1781.91,1048.53C1784.29,1048.46 1786.5,1047.37 1788.28,1045.67C1789.51,1044.49 1789.81,1042.57 1789.99,1040.71L1789.99,1040.66C1790.03,1039.55 1790.06,1038.43 1790.08,1037.32L1790.11,1036.32L1790.11,1035.48C1790.13,1034.62 1790.22,1034.39 1790.43,1033.89C1790.83,1032.93 1791.7,1032.11 1792.66,1031.93L1793.47,1031.83L1800.07,1031.83C1802.07,1032 1803.22,1033.4 1803.35,1035.02L1803.35,1040.91C1803.26,1042.87 1802.79,1045.36 1802.7,1045.69C1802.5,1046.43 1802.27,1047.17 1802,1047.89C1801.37,1049.57 1800.5,1051.17 1799.42,1052.62L1797.94,1054.45C1797.2,1055.22 1796.12,1056.22 1796.12,1056.22C1792.3,1059.38 1787.41,1061.33 1782.35,1061.48L1782.15,1061.49ZM1799.55,990.924C1801.61,991.187 1803.26,992.911 1803.35,994.904L1803.34,1021.38C1803.24,1023.48 1801.43,1025.28 1799.23,1025.37L1794.18,1025.37C1792.03,1025.28 1790.18,1023.5 1790.07,1021.39L1790.07,1012.89L1771.19,1031.22C1769.65,1032.61 1767.04,1032.65 1765.39,1031.23L1761.82,1027.76C1760.36,1026.2 1760.36,1023.67 1761.82,1022.12L1780.7,1003.79L1771.93,1003.8C1769.83,1003.65 1767.95,1001.99 1767.84,999.806L1767.84,994.911C1767.93,992.822 1769.78,991.015 1771.95,990.92L1799.24,990.911C1799.34,990.915 1799.45,990.92 1799.55,990.924Z" style="fill:white;"/>
            </g>
        </g>
        <g transform="matrix(1.06915,0,2.46519e-32,1.06915,-118.698,-96.4036)">
            <g transform="matrix(0.415847,3.81855e-17,5.92947e-17,0.403641,789.313,21.0783)">
                <rect x="2240.74" y="2610.91" width="197.075" height="197.075" style="fill:white;fill-opacity:0;"/>
            </g>
            <g transform="matrix(0.880051,8.08114e-17,1.5198e-17,0.854218,-1265.51,-299.096)">
                <path d="M3437.7,1616.65C3438.09,1615.58 3439.11,1614.86 3440.26,1614.86C3441.4,1614.86 3442.42,1615.58 3442.81,1616.65L3452.2,1642.62L3479.8,1643.53C3480.94,1643.56 3481.94,1644.31 3482.29,1645.4C3482.65,1646.49 3482.28,1647.68 3481.38,1648.38L3459.58,1665.34L3467.25,1691.87C3467.57,1692.97 3467.16,1694.15 3466.24,1694.82C3465.31,1695.49 3464.07,1695.51 3463.12,1694.87L3440.26,1679.38L3417.4,1694.87C3416.45,1695.51 3415.2,1695.49 3414.28,1694.82C3413.35,1694.15 3412.95,1692.97 3413.26,1691.87L3420.93,1665.34L3399.14,1648.38C3398.23,1647.68 3397.87,1646.49 3398.22,1645.4C3398.57,1644.31 3399.57,1643.56 3400.71,1643.53L3428.32,1642.62L3437.7,1616.65Z" style="fill:white;"/>
            </g>
        </g>
        <g transform="matrix(1,6.16298e-32,1.47911e-31,1,328.102,-89.8265)">
            <g transform="matrix(0.444601,4.08259e-17,6.33947e-17,0.431551,801.554,15.9587)">
                <rect x="2240.74" y="2610.91" width="197.075" height="197.075" style="fill:white;fill-opacity:0;"/>
            </g>
            <g transform="matrix(0.927327,1.11839e-16,-1.48856e-16,0.900108,-3486.58,698.738)">
                <g transform="matrix(1,0,0,1,-12.3122,-12.4515)">
                    <path d="M5758.05,511.969C5780.65,511.969 5799,530.321 5799,552.925C5799,575.529 5780.65,593.88 5758.05,593.88C5735.44,593.88 5717.09,575.529 5717.09,552.925C5717.09,530.321 5735.44,511.969 5758.05,511.969ZM5758.05,524.495C5773.74,524.495 5786.48,537.234 5786.48,552.925C5786.48,568.615 5773.74,581.354 5758.05,581.354C5742.36,581.354 5729.62,568.615 5729.62,552.925C5729.62,537.234 5742.36,524.495 5758.05,524.495Z" style="fill:white;"/>
                </g>
                <g transform="matrix(0.704958,-0.704958,0.707107,0.707107,1311.07,4210.79)">
                    <rect x="5742.31" y="505.898" width="12.5" height="69.151" style="fill:white;"/>
                </g>
            </g>
        </g>
        <g transform="matrix(0.673288,6.18253e-17,9.60027e-17,0.653525,-3009.1,-602.775)">
            <g transform="matrix(1.01484,0,0,1.01484,5017.44,-399.485)">
                <rect x="2240.74" y="2610.91" width="197.075" height="197.075" style="fill:white;fill-opacity:0;"/>
            </g>
            <path d="M7437.05,2346.88C7435.47,2321.41 7416.56,2297.95 7391.61,2291.53C7370.88,2286.2 7347.45,2292.76 7332.48,2308.47C7316.4,2325.32 7311.21,2351.69 7320.33,2373.64C7331.12,2399.64 7360.92,2416.24 7390.09,2409.53C7401.42,2406.93 7411.91,2400.99 7420.13,2392.53C7420.13,2392.53 7423.15,2389.95 7426.25,2390.03C7428.29,2390.08 7430.23,2390.97 7431.77,2392.34L7436.18,2396.6C7439.35,2399.92 7439.36,2405.24 7435.83,2408.82C7410.93,2434.11 7369.3,2441.09 7337.15,2423.87C7313.6,2411.26 7296.8,2386.89 7293.66,2360.17C7289.48,2324.65 7310.47,2287.51 7344.46,2273.37C7354.39,2269.24 7365.16,2267.09 7375.89,2267.01C7376.16,2267.01 7376.43,2267.01 7376.7,2267.01C7414.32,2267.23 7450.17,2294.85 7458.08,2333.57C7458.87,2337.41 7459.56,2341.2 7459.78,2345.05L7472.16,2332.68C7475.12,2329.71 7479.94,2329.71 7482.91,2332.68L7487.52,2337.29C7490.49,2340.26 7490.49,2345.08 7487.52,2348.04L7457.49,2378.08C7457.49,2378.08 7452.88,2382.69 7452.88,2382.69C7451.47,2384.1 7449.65,2384.84 7447.81,2384.89L7447.5,2384.91C7447.5,2384.91 7447.19,2384.89 7447.19,2384.89C7445.35,2384.84 7443.53,2384.1 7442.12,2382.69C7442.12,2382.69 7437.51,2378.08 7437.51,2378.08C7437.51,2378.08 7407.48,2348.04 7407.48,2348.04C7404.51,2345.08 7404.51,2340.26 7407.48,2337.29L7412.09,2332.68C7415.06,2329.71 7419.88,2329.71 7422.84,2332.68L7437.05,2346.88Z" style="fill:white;"/>
        </g>
        <g transform="matrix(-5.56901e-17,-0.664436,0.684529,1.03542e-16,358.829,6494.02)">
            <g transform="matrix(0.6495,0,0,0.6495,6605.77,590.216)">
                <rect x="2240.74" y="2610.91" width="197.075" height="197.075" style="fill:white;fill-opacity:0;"/>
            </g>
            <g transform="matrix(-6.15772e-17,-1.83711,1.89563,3.85945e-16,6143.94,6424.22)">
                <g transform="matrix(0.645003,5.9228e-17,9.18259e-17,0.625092,-1011.64,-2507.26)">
                    <circle cx="5006.76" cy="5716.45" r="12.239" style="fill:white;"/>
                </g>
                <g transform="matrix(0.645003,5.9228e-17,9.18259e-17,0.625092,-1011.64,-2507.26)">
                    <circle cx="5006.76" cy="5682.99" r="12.239" style="fill:white;"/>
                </g>
                <g transform="matrix(0.645003,5.9228e-17,9.18259e-17,0.625092,-1011.64,-2507.26)">
                    <circle cx="5006.76" cy="5649.53" r="12.239" style="fill:white;"/>
                </g>
            </g>
        </g>
        <g transform="matrix(1.34173,1.23205e-16,1.91314e-16,1.30234,-2346.96,-5101.94)">
            <text x="3140.68px" y="4365.52px" style="font-family:'Schluber';font-size:251.776px;fill:rgb(3,45,20);">12</text>
        </g>
        <g transform="matrix(0.313858,2.88203e-17,4.47524e-17,0.304646,958.232,-629.414)">
            <text x="2910.69px" y="4365.52px" style="font-family:'Schluber';font-size:251.776px;fill:white;">BEST 15</text>
        </g>
        <g transform="matrix(0.684529,6.28575e-17,9.76054e-17,0.664436,-3090.22,-628.3)">
            <g transform="matrix(0.6495,0,0,0.6495,6164.64,590.216)">
                <rect x="2240.74" y="2610.91" width="197.075" height="197.075" style="fill:white;fill-opacity:0;"/>
            </g>
            <g transform="matrix(1.55038,-1.469e-16,-2.2775e-16,1.59976,4340.59,709.614)">
                <g transform="matrix(0.846955,7.77724e-17,1.20577e-16,0.82081,-2090.18,-3631.84)">
                    <path d="M4987.72,5656.56C4998.33,5643.84 5014.76,5631.26 5019.26,5635.49C5026.07,5641.9 5026.07,5705.99 5019.26,5712.4C5014.76,5716.63 4998.33,5704.05 4987.72,5691.33L4974.62,5691.33C4969.56,5691.33 4965.45,5687.22 4965.45,5682.16L4965.45,5665.73C4965.45,5660.67 4969.56,5656.56 4974.62,5656.56L4987.72,5656.56Z" style="fill:white;"/>
                </g>
                <g transform="matrix(0.846955,7.77724e-17,1.20577e-16,0.82081,-2090.18,-3631.84)">
                    <path d="M5047.83,5640.49C5047.56,5640.51 5047.49,5640.51 5047.23,5640.56C5046.83,5640.64 5046.44,5640.78 5046.09,5640.98C5045.74,5641.17 5045.41,5641.42 5045.14,5641.71C5044.86,5642.01 5044.62,5642.34 5044.45,5642.71C5044.05,5643.53 5043.94,5644.48 5044.16,5645.36C5044.25,5645.76 5044.41,5646.14 5044.62,5646.48C5044.76,5646.71 5044.8,5646.76 5044.97,5646.98C5045.17,5647.21 5045.36,5647.45 5045.56,5647.69C5046.37,5648.71 5047.14,5649.76 5047.86,5650.85C5049.37,5653.14 5050.65,5655.57 5051.68,5658.11C5053.87,5663.48 5054.93,5669.3 5054.77,5675.1C5054.63,5680.13 5053.58,5685.12 5051.68,5689.78C5050.62,5692.38 5049.3,5694.89 5047.73,5697.23C5046.88,5698.5 5045.95,5699.73 5044.97,5700.91L5044.78,5701.15C5044.73,5701.24 5044.67,5701.32 5044.62,5701.41C5044.51,5701.58 5044.42,5701.76 5044.34,5701.95C5044.07,5702.6 5043.99,5703.33 5044.09,5704.03C5044.16,5704.53 5044.33,5705.01 5044.59,5705.45C5044.79,5705.8 5045.05,5706.12 5045.35,5706.39C5045.65,5706.66 5045.99,5706.88 5046.36,5707.05C5047.19,5707.43 5048.15,5707.51 5049.03,5707.27C5049.42,5707.17 5049.79,5707 5050.13,5706.79C5050.39,5706.62 5050.62,5706.43 5050.84,5706.21C5050.97,5706.08 5051.09,5705.93 5051.21,5705.78C5051.39,5705.57 5051.56,5705.36 5051.73,5705.14C5052.47,5704.22 5053.18,5703.27 5053.86,5702.3C5055.55,5699.84 5057.03,5697.23 5058.26,5694.51C5059.08,5692.7 5059.79,5690.84 5060.39,5688.95C5062.28,5682.98 5063.02,5676.64 5062.57,5670.39C5062.2,5665.15 5060.99,5659.98 5059.01,5655.12C5057.78,5652.11 5056.26,5649.22 5054.47,5646.5C5053.51,5645.05 5052.48,5643.66 5051.38,5642.32L5051.21,5642.11C5051.02,5641.88 5050.84,5641.66 5050.62,5641.47C5050.08,5641 5049.43,5640.68 5048.73,5640.55C5048.47,5640.5 5048.4,5640.5 5048.13,5640.48C5048.03,5640.48 5047.93,5640.49 5047.83,5640.49Z" style="fill:white;"/>
                </g>
                <g transform="matrix(0.846955,7.77724e-17,1.20577e-16,0.82081,-2090.18,-3631.84)">
                    <path d="M5037.75,5653.51C5037.55,5653.52 5037.5,5653.52 5037.3,5653.55C5036.85,5653.62 5036.42,5653.76 5036.02,5653.98C5035.69,5654.16 5035.38,5654.38 5035.11,5654.65C5034.47,5655.28 5034.06,5656.14 5033.96,5657.04C5033.92,5657.42 5033.93,5657.8 5034,5658.17C5034.08,5658.61 5034.24,5659.04 5034.46,5659.43C5034.56,5659.61 5034.59,5659.65 5034.71,5659.81C5034.91,5660.07 5035.11,5660.31 5035.31,5660.56C5035.8,5661.19 5036.26,5661.83 5036.67,5662.51C5037.38,5663.64 5037.98,5664.84 5038.46,5666.09C5039.46,5668.66 5039.96,5671.42 5039.93,5674.18C5039.9,5676.78 5039.4,5679.38 5038.46,5681.8C5037.89,5683.27 5037.16,5684.67 5036.29,5685.98C5035.84,5686.65 5035.36,5687.28 5034.85,5687.9L5034.71,5688.08C5034.58,5688.26 5034.46,5688.45 5034.36,5688.65C5034.12,5689.13 5033.98,5689.65 5033.94,5690.17C5033.92,5690.55 5033.95,5690.93 5034.03,5691.29C5034.11,5691.66 5034.25,5692.02 5034.43,5692.35C5034.87,5693.14 5035.59,5693.77 5036.43,5694.1C5036.85,5694.27 5037.3,5694.36 5037.75,5694.38C5038.73,5694.42 5039.71,5694.07 5040.46,5693.44C5040.71,5693.22 5040.92,5692.98 5041.13,5692.72C5041.28,5692.54 5041.4,5692.39 5041.54,5692.21C5043.93,5689.17 5045.71,5685.65 5046.75,5681.93C5047.83,5678.08 5048.11,5674.02 5047.59,5670.06C5047.23,5667.3 5046.47,5664.59 5045.34,5662.03C5044.44,5659.96 5043.29,5658 5041.93,5656.19C5041.67,5655.85 5041.4,5655.5 5041.13,5655.17C5040.92,5654.91 5040.71,5654.67 5040.46,5654.45C5039.94,5654.01 5039.32,5653.71 5038.65,5653.58C5038.42,5653.54 5038.2,5653.52 5037.98,5653.51C5037.9,5653.51 5037.82,5653.51 5037.75,5653.51Z" style="fill:white;"/>
                </g>
            </g>
        </g>
    </g>
    <g transform="matrix(1,1.47911e-31,-1.47911e-31,1,11.2636,-2485.97)">
        <g transform="matrix(0.766563,3.75992e-31,-3.01404e-31,0.782939,-3911.96,-525.292)">
            <rect x="7171.01" y="7104.85" width="612.946" height="100.146" style="fill:white;"/>
        </g>
        <g transform="matrix(0.766563,4.23166e-31,-4.00113e-31,0.778814,-3911.96,-417.578)">
            <rect x="7171.01" y="7104.85" width="612.946" height="100.146" style="fill:white;"/>
        </g>
        <g transform="matrix(0.528692,7.48658e-32,-1.80832e-31,0.385676,-2179.55,2382.09)">
            <path d="M8009.36,6731.68C8009.36,6705.14 7993.64,6683.6 7974.28,6683.6L7155.7,6683.6C7136.35,6683.6 7120.63,6705.14 7120.63,6731.68L7120.63,6885.83L8009.36,6885.83L8009.36,6731.68Z" style="fill:white;"/>
        </g>
        <g transform="matrix(0.528692,6.17208e-31,1.99321e-31,-0.385676,-2179.55,7849.48)">
            <path d="M8009.36,6731.68C8009.36,6705.14 7993.64,6683.6 7974.28,6683.6L7155.7,6683.6C7136.35,6683.6 7120.63,6705.14 7120.63,6731.68L7120.63,6885.83L8009.36,6885.83L8009.36,6731.68Z" style="fill:white;"/>
        </g>
        <g transform="matrix(0.829474,4.75652e-31,-7.82302e-32,0.146674,-8632.55,3768.94)">
            <rect x="12338" y="9182.56" width="525.868" height="15.238" style="fill:rgb(237,237,237);"/>
        </g>
        <g transform="matrix(0.829474,4.51e-31,-7.51487e-32,0.146674,-8632.55,3846.94)">
            <rect x="12338" y="9182.56" width="525.868" height="15.238" style="fill:rgb(237,237,237);"/>
        </g>
        <g transform="matrix(0.607051,5.22492e-33,-2.93029e-31,0.607051,-2916.84,-351.904)">
            <text x="7572.57px" y="8847.55px" style="font-family:'DMSans-Bold', 'DM Sans';font-weight:700;font-size:48.254px;fill:rgb(36,36,36);">Enjo<tspan x="7669.8px " y="8847.55px ">y</tspan>ing the Game<tspan x="8008.01px " y="8847.55px ">?</tspan></text>
        </g>
        <g transform="matrix(0.475859,4.09575e-33,-2.29702e-31,0.475859,-1893.26,849.846)">
            <text x="7468.58px" y="8847.55px" style="font-family:'DMSans-Bold', 'DM Sans';font-weight:700;font-size:48.254px;fill:rgb(36,36,36);">T<tspan x="7493px " y="8847.55px ">a</tspan>p a s<tspan x="7627.67px " y="8847.55px ">t</tspan>ar t<tspan x="7726.11px " y="8847.55px ">o</tspan> le<tspan x="7807.76px " y="8847.55px ">t</tspan> us kno<tspan x="7990.84px " y="8847.55px ">w</tspan> ho<tspan x="8098.73px " y="8847.55px ">w</tspan></text>
            <text x="7649.51px" y="8911.89px" style="font-family:'DMSans-Bold', 'DM Sans';font-weight:700;font-size:48.254px;fill:rgb(36,36,36);">w<tspan x="7687.34px " y="8911.89px ">e</tspan> ar<tspan x="7774.2px " y="8911.89px ">e</tspan> doing.</text>
        </g>
        <g transform="matrix(0.518089,7.2252e-32,-2.74738e-31,0.518089,-2222.72,657.999)">
            <text x="7737.26px" y="8847.55px" style="font-family:'DMSans-Bold', 'DM Sans';font-weight:700;font-size:48.254px;fill:rgb(149,149,149);">Close</text>
        </g>
        <g transform="matrix(1,0,0,1,31.9287,-6.19278)">
            <path d="M1649.72,5139.54L1655.04,5155.91L1672.25,5155.91L1658.32,5166.03L1663.64,5182.41L1649.72,5172.29L1635.79,5182.41L1641.11,5166.03L1627.18,5155.91L1644.4,5155.91L1649.72,5139.54Z" style="fill:rgb(0,218,93);"/>
        </g>
        <g transform="matrix(1,0,0,1,101.106,-6.19278)">
            <path d="M1649.72,5139.54L1655.04,5155.91L1672.25,5155.91L1658.32,5166.03L1663.64,5182.41L1649.72,5172.29L1635.79,5182.41L1641.11,5166.03L1627.18,5155.91L1644.4,5155.91L1649.72,5139.54Z" style="fill:rgb(0,218,93);"/>
        </g>
        <g transform="matrix(1,0,0,1,170.284,-6.19278)">
            <path d="M1649.72,5139.54L1655.04,5155.91L1672.25,5155.91L1658.32,5166.03L1663.64,5182.41L1649.72,5172.29L1635.79,5182.41L1641.11,5166.03L1627.18,5155.91L1644.4,5155.91L1649.72,5139.54Z" style="fill:rgb(0,218,93);"/>
        </g>
        <g transform="matrix(1,0,0,1,239.462,-6.19278)">
            <path d="M1649.72,5139.54L1655.04,5155.91L1672.25,5155.91L1658.32,5166.03L1663.64,5182.41L1649.72,5172.29L1635.79,5182.41L1641.11,5166.03L1627.18,5155.91L1644.4,5155.91L1649.72,5139.54Z" style="fill:rgb(0,218,93);"/>
        </g>
        <g transform="matrix(1,0,0,1,308.639,-6.19278)">
            <path d="M1649.72,5139.54L1655.04,5155.91L1672.25,5155.91L1658.32,5166.03L1663.64,5182.41L1649.72,5172.29L1635.79,5182.41L1641.11,5166.03L1627.18,5155.91L1644.4,5155.91L1649.72,5139.54Z" style="fill:rgb(195,195,195);"/>
        </g>
    </g>
    <g transform="matrix(1,7.39557e-32,-7.39557e-32,1,-805.126,-3020.58)">
        <g transform="matrix(0.766563,3.47577e-31,-3.42515e-31,0.778814,-3095.57,431.245)">
            <rect x="7171.01" y="7104.85" width="612.946" height="100.146" style="fill:white;"/>
        </g>
        <g transform="matrix(0.528692,2.27328e-32,-1.52309e-31,0.385676,-1363.16,3308.91)">
            <path d="M8009.36,6731.68C8009.36,6705.14 7993.64,6683.6 7974.28,6683.6L7155.7,6683.6C7136.35,6683.6 7120.63,6705.14 7120.63,6731.68L7120.63,6885.83L8009.36,6885.83L8009.36,6731.68Z" style="fill:rgb(0,218,93);"/>
        </g>
        <g transform="matrix(0.528692,5.65075e-31,1.70798e-31,-0.385676,-1363.16,8698.3)">
            <path d="M8009.36,6731.68C8009.36,6705.14 7993.64,6683.6 7974.28,6683.6L7155.7,6683.6C7136.35,6683.6 7120.63,6705.14 7120.63,6731.68L7120.63,6885.83L8009.36,6885.83L8009.36,6731.68Z" style="fill:white;"/>
        </g>
        <g transform="matrix(0.518089,-1.58134e-32,-2.11771e-31,0.518089,-1406.72,1350.83)">
            <text x="7649.56px" y="8847.55px" style="font-family:'DMSans-Bold', 'DM Sans';font-weight:700;font-size:48.254px;fill:white;">Mor<tspan x="7740.08px " y="8847.55px ">e</tspan>  Games</text>
        </g>
        <g transform="matrix(0.829474,3.9386e-31,-6.73828e-32,0.146674,-7816.16,4617.76)">
            <rect x="12338" y="9182.56" width="525.868" height="15.238" style="fill:rgb(237,237,237);"/>
        </g>
        <g transform="matrix(0.829474,3.69208e-31,-6.43013e-32,0.146674,-7816.16,4695.76)">
            <rect x="12338" y="9182.56" width="525.868" height="15.238" style="fill:rgb(237,237,237);"/>
        </g>
        <g transform="matrix(0.518089,5.19793e-32,-3.10378e-31,0.518089,-1406.72,1428.54)">
            <text x="7640.97px" y="8847.55px" style="font-family:'DMSans-Bold', 'DM Sans';font-weight:700;font-size:48.254px;fill:rgb(0,218,93);">Priv<tspan x="7727.49px " y="8847.55px ">a</tspan>cy P<tspan x="7852.66px " y="8847.55px ">o</tspan>licy</text>
        </g>
        <g transform="matrix(0.518089,2.11645e-32,-2.36423e-31,0.518089,-1406.33,1506.82)">
            <text x="7737.26px" y="8847.55px" style="font-family:'DMSans-Bold', 'DM Sans';font-weight:700;font-size:48.254px;fill:rgb(149,149,149);">Close</text>
        </g>
    </g>
    <g transform="matrix(1,7.39557e-32,-7.39557e-32,1,-1879.06,-3271.34)">
        <g transform="matrix(0.766563,3.22925e-31,-2.93212e-31,0.778814,-2021.68,-34.5201)">
            <rect x="7171.01" y="7104.85" width="612.946" height="100.146" style="fill:white;"/>
        </g>
        <g transform="matrix(0.528692,2.27328e-32,-1.52309e-31,0.385676,-289.27,2843.14)">
            <path d="M8009.36,6731.68C8009.36,6705.14 7993.64,6683.6 7974.28,6683.6L7155.7,6683.6C7136.35,6683.6 7120.63,6705.14 7120.63,6731.68L7120.63,6885.83L8009.36,6885.83L8009.36,6731.68Z" style="fill:rgb(0,218,93);"/>
        </g>
        <g transform="matrix(0.528692,5.65075e-31,1.70798e-31,-0.385676,-289.27,8232.53)">
            <path d="M8009.36,6731.68C8009.36,6705.14 7993.64,6683.6 7974.28,6683.6L7155.7,6683.6C7136.35,6683.6 7120.63,6705.14 7120.63,6731.68L7120.63,6885.83L8009.36,6885.83L8009.36,6731.68Z" style="fill:white;"/>
        </g>
        <g transform="matrix(0.518089,-1.58134e-32,-2.11771e-31,0.518089,-332.826,963.062)">
            <text x="7599.2px" y="8847.55px" style="font-family:'DMSans-Bold', 'DM Sans';font-weight:700;font-size:48.254px;fill:rgb(0,218,93);">R<tspan x="7627.82px 7656.68px 7681.24px 7700.92px 7730.17px 7748.84px " y="8847.55px 8847.55px 8847.55px 8847.55px 8847.55px 8847.55px ">estore</tspan> Pur<tspan x="7866.48px " y="8847.55px ">c</tspan>hase</text>
        </g>
        <g transform="matrix(0.829474,3.3223e-31,-6.12198e-32,0.146674,-6742.27,4152)">
            <rect x="12338" y="9182.56" width="525.868" height="15.238" style="fill:rgb(237,237,237);"/>
        </g>
        <g transform="matrix(0.829474,3.69208e-31,-6.43013e-32,0.146674,-6742.27,4229.99)">
            <rect x="12338" y="9182.56" width="525.868" height="15.238" style="fill:rgb(237,237,237);"/>
        </g>
        <g transform="matrix(0.518089,-4.66283e-32,-2.11771e-31,0.518089,-332.826,885.067)">
            <text x="7659.93px" y="8847.55px" style="font-family:'DMSans-Bold', 'DM Sans';font-weight:700;font-size:48.254px;fill:white;">R<tspan x="7688.55px " y="8847.55px ">e</tspan>mo<tspan x="7790.7px 7816.23px " y="8847.55px 8847.55px ">ve</tspan> A<tspan x="7889.28px " y="8847.55px ">d</tspan>s</text>
        </g>
        <g transform="matrix(0.518089,2.11645e-32,-2.36423e-31,0.518089,-332.439,1041.06)">
            <text x="7737.26px" y="8847.55px" style="font-family:'DMSans-Bold', 'DM Sans';font-weight:700;font-size:48.254px;fill:rgb(149,149,149);">Close</text>
        </g>
    </g>
    <g id="android_icon" transform="matrix(0.535377,0,0,0.535377,-493.638,-2099.85)">
        <path d="M2834.71,5716.81C2834.71,5505.68 2663.3,5334.28 2452.17,5334.28L1304.57,5334.28C1093.44,5334.28 922.038,5505.68 922.038,5716.81L922.038,6864.41C922.038,7075.54 1093.44,7246.94 1304.57,7246.94L2452.17,7246.94C2663.3,7246.94 2834.71,7075.54 2834.71,6864.41L2834.71,5716.81Z" style="fill:rgb(0,218,93);"/>
        <clipPath id="_clip2">
            <path d="M2834.71,5716.81C2834.71,5505.68 2663.3,5334.28 2452.17,5334.28L1304.57,5334.28C1093.44,5334.28 922.038,5505.68 922.038,5716.81L922.038,6864.41C922.038,7075.54 1093.44,7246.94 1304.57,7246.94L2452.17,7246.94C2663.3,7246.94 2834.71,7075.54 2834.71,6864.41L2834.71,5716.81Z"/>
        </clipPath>
        <g clip-path="url(#_clip2)">
            <g transform="matrix(-4.24911,-3.82775,3.82775,-4.24911,13814.9,21605.5)">
                <circle cx="3348.07" cy="497.236" r="34.05" style="fill:white;"/>
            </g>
            <g transform="matrix(-4.24911,-3.82775,3.82775,-4.24911,14587.9,20832.5)">
                <circle cx="3348.07" cy="497.236" r="34.05" style="fill:white;"/>
            </g>
            <g transform="matrix(5.41348e-16,-8.84089,8.84089,5.41348e-16,-2925.55,35745)">
                <rect x="3265.87" y="568" width="41.116" height="41.116" style="fill-opacity:0.78;"/>
            </g>
            <g transform="matrix(5.41348e-16,-8.84089,8.84089,5.41348e-16,-3724.46,34946.1)">
                <rect x="3265.87" y="568" width="41.116" height="41.116" style="fill-opacity:0.78;"/>
            </g>
        </g>
    </g>
    <g id="Start" transform="matrix(0.798907,-7.55788e-17,-1.17359e-16,0.823067,-1251.83,3390.35)">
        <rect x="1566.92" y="8.076" width="801.094" height="1380.2" style="fill:rgb(0,218,93);"/>
        <g transform="matrix(0.461441,4.23722e-17,6.57959e-17,0.447896,483.435,-1268.19)">
            <text x="2932.97px" y="4365.52px" style="font-family:'Schluber';font-size:251.776px;fill:white;">TRICKY</text>
        </g>
        <g transform="matrix(0.502071,4.61031e-17,7.15892e-17,0.487334,353.018,-1335.55)">
            <text x="2955.38px" y="4365.52px" style="font-family:'Schluber';font-size:251.776px;fill:rgb(0,67,29);">TURNS</text>
        </g>
        <g transform="matrix(0.625965,5.74798e-17,8.92549e-17,0.607591,506.92,-590.64)">
            <g transform="matrix(0.760999,0,0,0.760999,552.838,625.961)">
                <rect x="2240.74" y="2610.91" width="197.075" height="197.075" style="fill:none;"/>
            </g>
            <g transform="matrix(1.15457,0,0,1.15103,-267.125,-1008.38)">
                <path d="M2212.5,3155.66C2214.48,3155.77 2214.81,3155.91 2215.68,3156.16C2216.5,3156.41 2217.29,3156.76 2218.06,3157.14L2298.26,3200.3C2305.65,3204.53 2306.92,3216.49 2299.38,3221.64C2298.9,3221.97 2298.77,3222.03 2298.26,3222.32L2218.06,3265.48C2217.55,3265.74 2217.43,3265.81 2216.89,3266.03C2209.8,3268.95 2200.53,3263.73 2199.7,3255.76C2199.64,3255.19 2199.65,3255.04 2199.64,3254.47L2199.64,3168.15C2199.69,3166.05 2199.87,3165.47 2200.23,3164.34C2201.67,3159.84 2205.85,3156.35 2210.57,3155.75C2211.81,3155.59 2212.1,3155.66 2212.5,3155.66Z" style="fill:white;"/>
            </g>
        </g>
    </g>
</svg>
